<svg width="24" height="24" viewBox="0 0 24 24" fill="none" xmlns="http://www.w3.org/2000/svg">
<rect width="24" height="24" fill="white"/>
<path d="M9.61769 3.11237C11.3967 3.11244 13.0743 4.20823 14.3726 6.25201C15.2796 7.68003 15.8657 9.56066 15.8999 11.8614C16.0718 11.4195 16.1967 10.9596 16.1968 10.4844C16.1969 10.1569 16.3663 9.78988 16.7173 9.66217L16.7896 9.63971C17.1477 9.55066 17.4636 9.77555 17.6021 10.0684C18.2026 11.3389 18.6151 13.1882 18.5191 15.1358C18.4227 17.0874 17.8137 19.1653 16.3394 20.8614C16.1931 21.0294 15.9851 21.1269 15.7612 21.1104C15.5391 21.0938 15.3485 20.9683 15.2241 20.7881C14.9915 20.4506 15.0079 19.9498 15.2808 19.6358C16.8631 17.8152 17.2873 15.3721 17.0054 13.3272C16.8539 13.5735 16.7283 13.7644 16.6421 13.9503C16.428 14.4123 16.1892 14.8155 15.9527 15.1368C15.7268 15.4438 15.4663 15.7267 15.1978 15.8936C14.9413 16.053 14.6428 16.0211 14.4224 15.8526L14.3325 15.7715C14.124 15.5512 14.0536 15.2272 14.1099 14.9405C14.8015 11.4297 14.1992 8.90649 13.1646 7.2774C12.3804 6.04307 11.5434 5.31168 10.6343 5.0069C10.8087 6.16213 10.7323 7.32989 10.6362 8.61237C10.5209 10.1522 10.0235 11.9094 9.59718 13.1348C9.49467 13.4289 9.22406 13.6983 8.85402 13.671H8.85304C8.50188 13.6443 8.27258 13.3638 8.19191 13.0743L8.19093 13.0753L7.52492 11.0899C7.00212 13.1408 7.28595 14.7921 7.62453 16.1055C8.04883 17.7512 8.87813 18.8799 9.40285 19.5919C9.42695 19.6246 9.45109 19.6571 9.47414 19.6885C9.71747 20.0202 9.71059 20.521 9.44875 20.8419C9.30841 21.0137 9.10459 21.119 8.88039 21.1114C8.65712 21.1037 8.46182 20.9858 8.33156 20.8087C8.30663 20.7747 8.2801 20.7387 8.25246 20.7012C7.71809 19.9774 6.70862 18.6115 6.19093 16.6036C5.64292 14.4775 5.3832 11.6834 6.94093 8.22369L6.99464 8.12311C7.11618 7.92726 7.31964 7.77365 7.56984 7.76178L7.69875 7.76862L7.81984 7.79694C8.07867 7.88398 8.24724 8.11653 8.31496 8.35651H8.31593L8.8882 10.0255C8.9992 9.5868 9.09635 9.11082 9.14503 8.461C9.23312 7.28455 9.28826 5.67305 8.98293 4.5069L8.91652 4.27936C8.83828 4.03625 8.85712 3.75889 8.97511 3.53033C9.09367 3.30084 9.32317 3.1125 9.61769 3.11237ZM9.22609 20.5391C9.21106 20.567 9.19316 20.593 9.17336 20.6172C9.16379 20.629 9.1523 20.6383 9.14211 20.6485C9.15245 20.6381 9.16463 20.6291 9.17433 20.6172C9.194 20.5931 9.2113 20.5669 9.22609 20.5391ZM9.27394 20.0821C9.27096 20.0709 9.26778 20.0599 9.26418 20.0489C9.26784 20.0598 9.2709 20.0709 9.27394 20.0821ZM9.2466 20.002C9.24342 19.9946 9.24129 19.9868 9.23781 19.9796C9.23502 19.9738 9.23105 19.9686 9.22804 19.963C9.2348 19.9757 9.24083 19.9888 9.2466 20.002ZM9.188 19.8985C9.19639 19.9099 9.20302 19.9225 9.21046 19.9346C9.20308 19.9227 9.19725 19.9098 9.18898 19.8985C9.16613 19.8674 9.14206 19.8349 9.11769 19.8018C9.14206 19.8349 9.16515 19.8674 9.188 19.8985ZM6.43703 16.1202C6.4678 16.2544 6.50039 16.3864 6.53371 16.5157C6.5649 16.6367 6.59865 16.755 6.63332 16.8712C6.5986 16.7548 6.56494 16.6359 6.53371 16.5147C6.48667 16.3322 6.44257 16.1446 6.40089 15.9522C6.41311 16.0085 6.42431 16.0647 6.43703 16.1202ZM6.34914 15.709C6.35327 15.73 6.35858 15.7507 6.36281 15.7715C6.3535 15.7256 6.34437 15.6794 6.33546 15.6329C6.3403 15.6583 6.34416 15.6838 6.34914 15.709ZM16.3198 13.8008C16.2796 13.8877 16.2376 13.9718 16.1958 14.0538C16.2377 13.9716 16.2805 13.8878 16.3208 13.8008C16.3477 13.7429 16.378 13.6834 16.4116 13.6231L16.3198 13.8008ZM17.4321 14.0508V14.0499C17.4242 13.8936 17.4107 13.7389 17.395 13.586C17.4108 13.7393 17.4242 13.8942 17.4321 14.0508ZM17.3882 13.5235C17.3738 13.3925 17.3572 13.2628 17.3374 13.1348C17.3571 13.2628 17.3739 13.3925 17.3882 13.5235ZM8.81984 13.3067C8.83939 13.3121 8.85999 13.3159 8.88039 13.3174L8.94093 13.3155C8.92101 13.3177 8.90076 13.318 8.88039 13.3165C8.85187 13.3143 8.82425 13.3075 8.79738 13.2979C8.80495 13.3007 8.8121 13.3045 8.81984 13.3067ZM8.71046 13.253C8.73373 13.2699 8.75895 13.2824 8.78468 13.293C8.75885 13.2826 8.73372 13.2698 8.71046 13.253ZM14.7134 13.168C14.7184 13.1055 14.7229 13.0433 14.7271 12.9815C14.7229 13.0433 14.7184 13.1055 14.7134 13.168ZM17.2476 12.6426C17.2775 12.7815 17.3034 12.923 17.3267 13.0665C17.3032 12.9227 17.2776 12.7808 17.2476 12.6417V12.6426ZM14.7476 12.5987C14.7497 12.5453 14.7519 12.4923 14.7534 12.4395C14.752 12.4923 14.7497 12.5453 14.7476 12.5987ZM14.7593 11.9307C14.7595 11.946 14.7592 11.9613 14.7593 11.9766C14.7578 11.7741 14.7527 11.5758 14.7417 11.3819L14.7593 11.9307ZM7.40578 10.2452C7.44009 10.1431 7.47392 10.0394 7.51222 9.93561L7.66847 10.4005L7.51222 9.93463C7.47384 10.0386 7.44015 10.143 7.40578 10.2452ZM17.2437 10.1514C17.2575 10.1725 17.2694 10.1957 17.2808 10.2198H17.2818C17.2703 10.1955 17.2577 10.1725 17.2437 10.1514ZM9.33156 9.68658H9.33253C9.35528 9.57738 9.37518 9.46369 9.39503 9.34479C9.37506 9.46372 9.35432 9.57731 9.33156 9.68658ZM9.39992 9.31647C9.41819 9.20475 9.43562 9.08832 9.4507 8.96588C9.43548 9.0883 9.41827 9.20477 9.39992 9.31647ZM9.45753 8.90045C9.47237 8.77268 9.48684 8.63874 9.49757 8.49713C9.48684 8.63876 9.4725 8.77272 9.45753 8.90045ZM16.815 6.39948C17.3047 6.39948 17.7016 6.79648 17.7017 7.28619C17.7017 7.77596 17.3047 8.17291 16.815 8.17291C16.3253 8.17272 15.9282 7.77585 15.9282 7.28619C15.9283 6.7966 16.3254 6.39966 16.815 6.39948ZM9.53859 7.83014C9.54402 7.72438 9.54914 7.6165 9.55324 7.5069C9.54917 7.6165 9.54399 7.72438 9.53859 7.83014ZM9.56203 6.37018C9.57136 6.72337 9.56823 7.07595 9.55714 7.41412C9.56833 7.07597 9.57142 6.72341 9.56203 6.37018ZM7.74855 4.62604C8.22008 4.62604 8.60286 5.00807 8.60304 5.47955C8.60304 5.9512 8.2202 6.33405 7.74855 6.33405C7.27704 6.33388 6.89503 5.9511 6.89503 5.47955C6.89522 5.00817 7.27716 4.6262 7.74855 4.62604ZM12.7232 6.08112C12.7867 6.15455 12.8501 6.23014 12.9126 6.30865C12.7874 6.1513 12.6601 6.0042 12.5308 5.86725L12.7232 6.08112ZM9.55812 6.25201C9.5533 6.1142 9.5459 5.97661 9.53664 5.8399C9.54589 5.97661 9.55332 6.1142 9.55812 6.25201ZM9.52394 5.65826C9.52044 5.61677 9.5162 5.57546 9.51222 5.53424C9.51618 5.57546 9.52046 5.61677 9.52394 5.65826ZM11.7271 5.16705C11.8654 5.26333 12.0015 5.36971 12.1353 5.48639L11.9331 5.31842C11.8651 5.26523 11.7962 5.21516 11.7271 5.16705Z" fill="black"/>
</svg>
